<svg xmlns="http://www.w3.org/2000/svg" width="23" height="22"><path fill="#FFF" fill-rule="evenodd" d="M10.75 18.176l-5.31 3.21c-.474.285-1.088.133-1.374-.34-.135-.223-.177-.49-.118-.744l1.41-6.043c.086-.37-.037-.75-.318-.99L.346 9.21c-.418-.36-.464-.99-.102-1.41.17-.194.41-.32.67-.34L7.1 6.94c.37-.03.69-.265.836-.608l2.41-5.72c.214-.51.8-.747 1.31-.532.24.1.43.29.533.53l2.41 5.72c.14.343.46.577.83.608l6.18.525c.55.05.956.53.91 1.08-.02.26-.145.504-.343.675l-4.693 4.06c-.28.242-.404.62-.32.983l1.41 6.04c.127.54-.207 1.08-.745 1.2-.256.06-.52.02-.747-.11l-5.31-3.21c-.32-.19-.717-.19-1.035 0z"/></svg>