<svg xmlns="http://www.w3.org/2000/svg" width="28" height="22"><path fill="#FFF" d="M9.156 21.094c-3.4-1.49-5.637-4.55-6.25-7.965.664.65 1.37 1.24 2.107 1.8.84.63 1.722 1.21 2.633 1.74 1.822 1.05 3.758 1.9 5.763 2.53 1 .31 2.02.57 3.05.76.9.16 1.82.27 2.74.32-2.91 1.864-6.66 2.29-10.05.8zM.1 6.987c-.157-.84-.128-1.723.183-2.516.392-.99 1.203-1.77 2.142-2.26 1.277-.66 2.77-.83 4.19-.8.15.01.297.01.444.02-.71.47-1.36 1-1.95 1.6-.77.19-1.64.51-2.24 1.04-.92.8-.94 1.98-.5 3.06.87 2.11 2.81 3.744 4.632 5.024.375.26.756.52 1.15.76 3.472 2.155 7.54 3.768 11.636 4.09 1.435.114 3.04.1 4.392-.473.636-.27 1.223-.74 1.486-1.385.39-.946.043-2.04-.377-2.91-.07-.143-.144-.285-.22-.423.007-.14.01-.283.013-.425.007-.71-.048-1.413-.167-2.107.36.356.723.743 1.07 1.175.824 1.03 1.5 2.22 1.67 3.55.14 1.102-.147 2.22-.834 3.096-.35.45-.78.82-1.236 1.106-1.3.82-2.912 1.133-4.43 1.21-4 .206-8.16-1.045-11.71-2.84-2.203-1.112-4.34-2.53-6.11-4.27C1.916 10.888.486 9.01.1 6.99zm6.05-3.594c.175-.16.354-.32.544-.47C8.207 1.683 10.05.84 11.99.576c3.67-.503 7.553 1.074 9.846 3.997 2.293 2.922 2.915 7.087 1.578 10.56-.084.217-.177.434-.337.6-.31.327-.802.388-1.25.408-2.4.1-4.782-.45-7.06-1.22-3.69-1.25-7.23-3.12-10.02-5.86-.394-.39-.792-.81-1.01-1.33-.385-.91.417-1.91.933-2.64.433-.61.93-1.18 1.48-1.69z"/></svg>