<svg xmlns="http://www.w3.org/2000/svg" viewBox="0 0 70 100">
  <defs>
    <style>
      .c8f62614-769d-4d11-88d1-02202b176eee{fill:#b2b2b2;}
    </style>
  </defs>
  <g id="34f929e5-7623-492b-a8e3-fbc4b13b40de" data-name="图层 2">
    <g id="da253294-93b2-47f0-8e77-9b2b8cb747e2" data-name="图层 1">
      <path d="M0 0h70v100H0z"/>
      <path d="M69.62 56.48c-1.65-9.86-8.89-11.77-12-12.12a11.15 11.15 0 0 0-9.17-4.64 13.61 13.61 0 0 0-2.48.23A11.35 11.35 0 0 0 37.21 36h-.3v-3A17.69 17.69 0 1 0 9.78 18.07 18.16 18.16 0 0 0 17.85 33v14.62l-.14-.34a9.18 9.18 0 0 0-7.92-4.61 10 10 0 0 0-8.61 5.05 9.19 9.19 0 0 0 .23 9.39L22.25 97a4.83 4.83 0 0 0 4.26 2.61h29.34a4.84 4.84 0 0 0 4.8-4.54L61.33 84c7.28-11.22 9.67-19.24 8.29-27.52zm-55.8-38.41a13.69 13.69 0 1 1 27.38 0 13.42 13.42 0 0 1-4.29 9.87v-4.27a26.77 26.77 0 0 0-.28-2.9 9.45 9.45 0 1 0-18.17-.22s-.07 0-.07.05a10.13 10.13 0 0 0-.53 3.07v4.17a14.44 14.44 0 0 1-4.04-9.77zm43.69 64.4a.8.8 0 0 0-.13.39l-.73 12a.82.82 0 0 1-.79.78H26.52a.82.82 0 0 1-.7-.46l-20.89-40C2.27 50.8 6 46.7 9.82 46.7a5.24 5.24 0 0 1 4.56 2.73l2.67 4.1a2.49 2.49 0 0 0 2.15 1.23 2.62 2.62 0 0 0 2.65-2.7V23.67a5.3 5.3 0 0 1 5.52-5.53 5.3 5.3 0 0 1 5.52 5.53v16.14a.88.88 0 0 0 .88.79 1.11 1.11 0 0 0 .29 0 10.77 10.77 0 0 1 3.22-.6 7.34 7.34 0 0 1 6.64 4 .85.85 0 0 0 .73.42.83.83 0 0 0 .28-.05 10.38 10.38 0 0 1 3.49-.65 7.17 7.17 0 0 1 6.27 3.48 2.48 2.48 0 0 0 1.94 1.1c2.49.14 7.78 1.34 9 8.85 1.25 7.2-.84 14.3-8.12 25.33z" class="c8f62614-769d-4d11-88d1-02202b176eee"/>
    </g>
  </g>
</svg>
