<svg xmlns="http://www.w3.org/2000/svg" width="22" height="28"><g fill="#FFF"><path d="M20.902 10.872H16.34c-.594 0-1.08.484-1.08 1.075 0 .59.486 1.075 1.08 1.075h3.466v12.72H2.202V13.02h3.826c.593 0 1.078-.484 1.078-1.075 0-.59-.485-1.075-1.078-1.075H1.106c-.593 0-1.06.537-1.06 1.13v14.903c0 .59.467.985 1.06.985h19.796c.593 0 1.06-.394 1.06-.985V12c0-.59-.467-1.128-1.06-1.128z"/><path d="M10.824 18.933c.593 0 1.078-.483 1.078-1.075V3.294l4.6 4.085c.196.176.466.265.717.265.303 0 .59-.125.806-.358.395-.45.36-1.13-.09-1.524L11.74.266c-.395-.34-.97-.357-1.383-.035-.198.09-.36.254-.467.43L4.52 5.805c-.432.412-.45 1.093-.037 1.523.413.43 1.096.448 1.527.036L9.746 3.78v14.08c0 .592.485 1.075 1.078 1.075z"/></g></svg>