<svg xmlns="http://www.w3.org/2000/svg" viewBox="0 0 70 100">
  <defs>
    <style>
      .fe6d026b-f7c3-4582-80cd-f00fbc4be066{fill:#b2b2b2;}
    </style>
  </defs>
  <g id="6ac4d0a7-57e5-4d6e-ae92-6460b432c7d2" data-name="图层 2">
    <g id="bd26d3d6-0d1d-4c4f-af36-504b2eef88a1" data-name="图层 1">
      <path d="M0 0h70v100H0z"/>
      <path d="M64.46 20.63l-7.89-7.89a2.06 2.06 0 0 0-2.91 2.91l4.18 4.18H38.09a2.06 2.06 0 0 0 0 4.12h20.12l-4.36 4.36a2.06 2.06 0 1 0 2.91 2.91l7.69-7.69a2.06 2.06 0 0 0 .01-2.9zM57.28 45a13.8 13.8 0 0 0-6.22-2.21 11.38 11.38 0 0 0-9.34-4.71 13.83 13.83 0 0 0-2.52.24 11.46 11.46 0 0 0-8.8-4h-.19V21.67A9.6 9.6 0 0 0 27 14.41a10.13 10.13 0 0 0-13.62.38 9.56 9.56 0 0 0-2.74 6.94v29.85A10.48 10.48 0 0 0 5.48 58c-1.29 4.37-.26 10 3.13 17.22A83.88 83.88 0 0 0 14.81 86l.57 7.58a6.55 6.55 0 0 0 6.5 6h27a6.54 6.54 0 0 0 6.46-5.67l1-8c6.38-10 8.71-20.36 6.95-30.79-.9-5.64-3.77-8.62-6.01-10.12zm-4.55 39a2.41 2.41 0 0 0-.37 1l-1.1 8.37a2.34 2.34 0 0 1-2.38 2h-27a2.34 2.34 0 0 1-2.4-2.15l-.6-8a2.34 2.34 0 0 0-.42-1.16C16 80.48 2.2 59.53 13.38 54.86a2.38 2.38 0 0 0 1.46-2.2V21.72a5.41 5.41 0 0 1 5.63-5.64 5.41 5.41 0 0 1 5.63 5.63v14.52a2.4 2.4 0 0 0 2.77 2.37 9.9 9.9 0 0 1 1.54-.12 7.33 7.33 0 0 1 6.21 3.19 2.36 2.36 0 0 0 1.92 1 2.47 2.47 0 0 0 .63-.08 10.15 10.15 0 0 1 2.57-.35 7.32 7.32 0 0 1 6.46 3.67 2.08 2.08 0 0 0 1.69 1c2.43.09 8.09 1.15 9.41 9 1.22 7.21.7 16.97-6.57 28.09z" class="fe6d026b-f7c3-4582-80cd-f00fbc4be066"/>
    </g>
  </g>
</svg>
