<svg xmlns="http://www.w3.org/2000/svg" viewBox="0 0 70 100">
  <defs>
    <style>
      .\39 5061d4e-10f9-4ef3-b9c6-e5c68e3ad99d{fill:#b2b2b2;}
    </style>
  </defs>
  <g id="d5bed098-1dc5-442e-a5d3-d86f08d3e766" data-name="图层 2">
    <g id="e3120458-509e-419a-91ae-4486e8938c4c" data-name="图层 1">
      <path d="M0 0h70v100H0z"/>
      <path d="M42.34 18.29a1.91 1.91 0 0 0 1.9 1.91h5.82a1.9 1.9 0 1 0 0-3.79h-5.82a1.89 1.89 0 0 0-1.9 1.88zM42 12.87a1.89 1.89 0 0 0 1.07-.33l4.81-3.27a1.9 1.9 0 0 0-2.14-3.15l-4.82 3.27A1.9 1.9 0 0 0 42 12.87zM43.07 24a1.9 1.9 0 1 0-2.13 3.15l4.82 3.26a1.9 1.9 0 0 0 2.13-3.15zM8 20.2a1.9 1.9 0 0 0 0-3.8H2.14a1.89 1.89 0 1 0 0 3.79H8zM4.07 9.25l4.81 3.27A1.9 1.9 0 1 0 11 9.38L6.21 6.11a1.9 1.9 0 1 0-2.14 3.14zM8.87 24L4 27.28a1.9 1.9 0 1 0 2.13 3.15L11 27.17A1.9 1.9 0 0 0 8.87 24z" class="95061d4e-10f9-4ef3-b9c6-e5c68e3ad99d"/>
      <path d="M63.13 45.36a13.8 13.8 0 0 0-6.22-2.21 11.38 11.38 0 0 0-9.34-4.71 13.83 13.83 0 0 0-2.52.24 11.46 11.46 0 0 0-8.8-4H36V22.03a9.6 9.6 0 0 0-3.15-7.3 10.13 10.13 0 0 0-13.62.38 9.56 9.56 0 0 0-2.74 6.94v29.88a10.48 10.48 0 0 0-5.24 6.44c-1.29 4.37-.26 10 3.13 17.22a83.88 83.88 0 0 0 6.2 10.8l.64 7.61a6.55 6.55 0 0 0 6.5 6h27a6.54 6.54 0 0 0 6.46-5.67l1-8c6.38-10 8.71-20.36 6.95-30.79-.9-5.71-3.77-8.68-6-10.18zm-4.55 39a2.41 2.41 0 0 0-.37 1l-1.1 8.37a2.34 2.34 0 0 1-2.38 2h-27a2.34 2.34 0 0 1-2.4-2.15l-.6-8a2.34 2.34 0 0 0-.42-1.16C21.84 80.83 8 59.89 19.22 55.22A2.38 2.38 0 0 0 20.68 53V22.06a5.41 5.41 0 0 1 5.63-5.64 5.41 5.41 0 0 1 5.63 5.63v14.52A2.4 2.4 0 0 0 34.7 39a9.9 9.9 0 0 1 1.54-.12A7.33 7.33 0 0 1 42.45 42a2.36 2.36 0 0 0 1.92 1 2.47 2.47 0 0 0 .63-.1 10.15 10.15 0 0 1 2.57-.35A7.32 7.32 0 0 1 54 46.22a2.08 2.08 0 0 0 1.69 1c2.43.09 8.09 1.15 9.41 9 1.26 7.25.69 17.02-6.52 28.17z" class="95061d4e-10f9-4ef3-b9c6-e5c68e3ad99d"/>
    </g>
  </g>
</svg>
