<svg xmlns="http://www.w3.org/2000/svg" width="18" height="30"><path fill="#030104" d="M13.577 22.126l.875-1.743c1.275-2.542 1.416-5.097.4-7.188-.194-.398-.438-.756-.7-1.094 2.227-.97 3.792-3.192 3.792-5.78 0-3.484-2.832-6.32-6.316-6.32-3.483 0-6.315 2.836-6.315 6.32 0 1.236.37 2.38.985 3.357-2.678.52-4.43 1.97-4.653 2.17-1.13.997-1.398 2.653-.64 3.954.512.883 1.4 1.436 2.36 1.548L2.49 19.09c-1.28 2.54-1.42 5.096-.406 7.186.893 1.838 2.56 3.087 4.693 3.52.652.132 1.32.2 1.98.2 3.74 0 6.26-2.127 6.537-2.37 1.13-.994 1.4-2.65.643-3.952-.512-.878-1.4-1.435-2.362-1.547zm-1.95-18.968c1.745 0 3.16 1.415 3.16 3.158 0 1.743-1.415 3.158-3.16 3.158-1.743 0-3.156-1.415-3.156-3.158 0-1.743 1.42-3.158 3.16-3.158zM8.762 26.84c-.427 0-.882-.04-1.347-.137-2.593-.527-3.676-3.052-2.097-6.2l1.58-3.15c.788-1.573.74-2.574-.172-3.214-.286-.2-.68-.27-1.088-.27-.91 0-1.896.34-1.896.34s1.79-1.58 4.44-1.58c.428 0 .884.04 1.352.132 2.59.528 3.675 3.052 2.096 6.2l-1.58 3.148c-.788 1.577-.744 2.578.17 3.214.285.2.683.267 1.09.267.913 0 1.896-.333 1.896-.333s-1.79 1.58-4.443 1.58z"/></svg>