<svg xmlns="http://www.w3.org/2000/svg" width="401.994" height="401.994"><path d="M0 401.99h182.724V219.266H0V401.99zm36.542-146.177h109.636v109.352H36.542V255.813z"/><path d="M73.09 292.355h36.543v36.55H73.09zm219.262 73.095h36.553v36.544h-36.553zm73.09 0h36.552v36.544h-36.552z"/><path d="M365.446 255.813h-36.542v-36.548h-109.64V401.99h36.55V292.356h36.538v36.55h109.64v-109.64h-36.546M0 182.728h182.724V0H0v182.728zM36.542 36.542h109.636v109.636H36.542V36.542z"/><path d="M73.09 73.09h36.543v36.546H73.09zM219.265 0v182.728h182.73V0h-182.73zm146.18 146.178h-109.63V36.542h109.632v109.636z"/><path d="M292.352 73.09h36.553v36.546h-36.553z"/></svg>