<svg xmlns="http://www.w3.org/2000/svg" width="30" height="30"><path fill="#030104" d="M3.977 16.875c-1.037 0-1.875.84-1.875 1.875 0 1.035.838 1.875 1.875 1.875h2.747L.55 26.8c-.734.732-.734 1.918 0 2.65.365.366.845.55 1.325.55s.96-.184 1.326-.55l6.404-6.4v3.2c0 1.035.838 1.875 1.875 1.875s1.647-.84 1.647-1.875v-9.375h-9.15zm1.648-3.75c1.035 0 1.875-.84 1.875-1.875V7.5h3.75c1.037 0 1.875-.84 1.875-1.875 0-1.035-.838-1.875-1.875-1.875H3.752l-.002 7.5c0 1.035.838 1.875 1.875 1.875zm18.75 3.75c-1.037 0-1.875.84-1.875 1.875v3.75h-3.75c-1.037 0-1.875.84-1.875 1.875 0 1.035.838 1.875 1.875 1.875h7.5v-7.5c0-1.035-.838-1.875-1.875-1.875zM26.8.55l-6.175 6.174V3.75c0-1.035-.838-1.875-1.875-1.875s-1.875.84-1.875 1.875v9.375h9.375c1.035 0 1.875-.84 1.875-1.875 0-1.035-.838-1.875-1.875-1.875h-2.974l6.175-6.172c.736-.734.736-1.92 0-2.652-.73-.73-1.916-.732-2.65 0z"/></svg>