<svg xmlns="http://www.w3.org/2000/svg" id="图层_1" data-name="图层 1" viewBox="0 0 77.33 77.33">
  <defs>
    <style>
      .cls-1{fill:#fff;}.cls-2{fill:#000;}
    </style>
  </defs>
  <circle cx="38.67" cy="38.67" r="38.67" class="cls-1"/>
  <path fill="#000" d="M66.72 65.3a38.48 38.48 0 0 1-28 12 38 38 0 0 1-28-12z" class="cls-2"/>
  <path fill="#fff" d="M13.9 15.24l-.37.31a.23.23 0 0 1-.22.07.32.32 0 0 1-.18-.11.34.34 0 0 1-.07-.18.21.21 0 0 1 .09-.2l.4-.33-.47-.57a.19.19 0 0 1 0-.17.32.32 0 0 1 .12-.18.27.27 0 0 1 .23-.07.26.26 0 0 1 .12.07l.47.57.29-.24a.2.2 0 0 1 .17 0 .32.32 0 0 1 .18.1.26.26 0 0 1 .07.21.22.22 0 0 1-.08.17l-.29.23.39.47a1.73 1.73 0 0 0 .1-.2l.06-.13a.21.21 0 0 1 .18-.09.31.31 0 0 1 .18.06.24.24 0 0 1 .08.16 1.33 1.33 0 0 1-.25.65l.85 1a1.08 1.08 0 0 1 .18.26.3.3 0 0 1 0 .17.8.8 0 0 1-.12.24 1.31 1.31 0 0 1-.28.29.25.25 0 0 1-.4 0 .51.51 0 0 1-.09-.16.2.2 0 0 1 0-.13v-.06l.17-.15a.11.11 0 0 0 0-.08.29.29 0 0 0-.07-.11l-.57-.69-.16.3a.31.31 0 0 1-.23.19.28.28 0 0 1-.24-.08.32.32 0 0 1-.11-.18.34.34 0 0 1 0-.18l.22-.31.12-.2zm3.06-1.07l-1.14.93a.37.37 0 0 1-.18.07.26.26 0 0 1-.23-.11.2.2 0 0 1-.06-.26.48.48 0 0 1 .1-.15l1.15-.94-.57-.69a.1.1 0 0 0-.1 0h-.09l-1.1.9a.23.23 0 0 1-.21 0 .33.33 0 0 1-.18-.11.26.26 0 0 1-.06-.19.23.23 0 0 1 .09-.18l1.17-.86q.3-.25.46-.21a.65.65 0 0 1 .28.14 1.52 1.52 0 0 1 .19.19l1.62 2a1 1 0 0 1 .14.23.63.63 0 0 1 0 .3.66.66 0 0 1-.29.4l-1.19 1q-.26.21-.43-.09a.24.24 0 0 1 0-.21.42.42 0 0 1 .12-.18l1.1-.9a.18.18 0 0 0 .08-.11.16.16 0 0 0 0-.12zm.59-2.64l-.34.22h-.14q-.11 0-.21-.15a.26.26 0 0 1 0-.17.2.2 0 0 1 .09-.16l1.16-.75a.19.19 0 0 1 .2 0 .43.43 0 0 1 .14.1.28.28 0 0 1 .05.17.2.2 0 0 1-.09.18l-.34.22a5.94 5.94 0 0 1 .18.89l.22-.14a.79.79 0 0 1 .42-.16.45.45 0 0 1 .24.1 1 1 0 0 1 .19.22l.66 1a1 1 0 0 1 .12.24.48.48 0 0 1 0 .27q0 .14-.32.33l-.22.14a.54.54 0 0 1-.4.13.59.59 0 0 1-.23-.12 1 1 0 0 1-.17-.2l-.54-.83q0 .25-.12.33a.35.35 0 0 1-.17 0 .22.22 0 0 1-.2-.13.25.25 0 0 1 0-.15v-.44a2.29 2.29 0 0 0 0-.59q-.11-.15-.18-.55zm1 1.16l.61.94c.05.08.11.1.17.06l.14-.09a.14.14 0 0 0 .07-.08.2.2 0 0 0 0-.13l-.59-.92s-.06-.07-.08-.08a.17.17 0 0 0-.12 0l-.12.08c-.2.08-.2.14-.15.22zm3-.39l-1.23.8a.34.34 0 0 1-.15 0A.19.19 0 0 1 20 13a.27.27 0 0 1-.05-.22.25.25 0 0 1 .11-.16l1.22-.79a.23.23 0 0 1 .2 0 .27.27 0 0 1 .16.11.25.25 0 0 1-.08.35zm-1-1.17l-.32-.61a4.66 4.66 0 0 0-.23-.42l-.1-.17a.16.16 0 0 0-.05-.13h-.16l-.89.58a.43.43 0 0 1-.19.06.22.22 0 0 1-.21-.13.23.23 0 0 1 0-.19.29.29 0 0 1 .12-.17l1-.65q.36-.23.52-.19a.62.62 0 0 1 .31.29q.11.18.3.55l.39.78q.27-.2.39-.18a.34.34 0 0 1 .2.11l.15.19.28.44.26.44.13.25a.92.92 0 0 1 .09.33.5.5 0 0 1-.15.37 2.11 2.11 0 0 1-.34.32.46.46 0 0 1-.25.12.27.27 0 0 1-.13 0 .35.35 0 0 1-.13-.16q-.11-.2 0-.28l.22-.17a.31.31 0 0 0 .14-.21.58.58 0 0 0-.1-.33c-.08-.14-.17-.29-.27-.45l-.14-.19c0-.05-.07-.08-.09-.08a.2.2 0 0 0-.1 0l-1 .66q-.3.2-.44.13a.53.53 0 0 1-.21-.04.89.89 0 0 1-.1-.17l-.08-.19c-.07-.15-.14-.3-.21-.44l-.14-.26a.84.84 0 0 1-.07-.19c0-.08 0-.15.13-.23a.31.31 0 0 1 .26-.08.25.25 0 0 1 .14.11v.06l.28.6.08.19c0 .08.07.13.09.13a.28.28 0 0 0 .12-.06zm3.2-3.05l1.45 3a.29.29 0 0 1 0 .24.33.33 0 0 1-.2.19.35.35 0 0 1-.23 0 .27.27 0 0 1-.19-.16l-1.45-3-1.39.67a.29.29 0 0 1-.28 0 .39.39 0 0 1-.16-.17.3.3 0 0 1 0-.23.33.33 0 0 1 .19-.19l3.43-1.63a.39.39 0 0 1 .28 0 .3.3 0 0 1 .19.16.28.28 0 0 1 0 .25.38.38 0 0 1-.2.19zm.61.9a.25.25 0 0 1 0-.24.31.31 0 0 1 .31-.22 2 2 0 0 1 .35.07 3.47 3.47 0 0 1 .53.21 2.54 2.54 0 0 1 .36.18.47.47 0 0 1 .14.18.28.28 0 0 1 0 .23.27.27 0 0 1-.15.16.4.4 0 0 1-.24 0 1.15 1.15 0 0 1-.31-.1l-.32-.14-.48-.17a.65.65 0 0 1-.2-.16zm3.78.25l-.09-.28-.56.18c-.17.05-.29 0-.35 0a.34.34 0 0 1-.06-.3l.06-.24v-.26l-.17.05a.29.29 0 0 1-.2 0 .23.23 0 0 1-.14-.15.23.23 0 0 1 0-.2.29.29 0 0 1 .17-.13l.4-.12a.69.69 0 0 1 0-.21s.07-.08.17-.11a.32.32 0 0 1 .26 0c.07 0 .11.07.11.09l.86-.27a.24.24 0 0 1 .2 0 .26.26 0 0 1 .11.14.3.3 0 0 1 0 .19.22.22 0 0 1-.15.13l-1.11.35-.05.27a.25.25 0 0 0 0 .13h.23a.5.5 0 0 1 0-.18c0-.06.09-.11.23-.15a.24.24 0 0 1 .31.15l.46-.14a.24.24 0 0 1 .2 0 .25.25 0 0 1 .12.14.28.28 0 0 1 0 .18.23.23 0 0 1-.15.13l-.46.14.07.24.28-.14.26-.06c.14 0 .23 0 .27.08a.35.35 0 0 1 0 .23.3.3 0 0 1-.08.13 2.71 2.71 0 0 1-.55.26l.07.21a.22.22 0 0 1 0 .19.29.29 0 0 1-.18.13.31.31 0 0 1-.21 0 .21.21 0 0 1-.13-.14v-.16q-.77.35-.81.35a.27.27 0 0 1-.16 0s-.09-.08-.15-.19 0-.21.12-.3a1.09 1.09 0 0 1 .25-.1q.14-.09.55-.26zm-1.4-1.61a.27.27 0 0 1-.2 0 .24.24 0 0 1-.13-.16.27.27 0 0 1 0-.21.25.25 0 0 1 .14-.15l.77-.24-.07-.24-.56.18a.28.28 0 0 1-.2 0 .24.24 0 0 1-.13-.15.27.27 0 0 1 .17-.34l.56-.17v-.15a.24.24 0 0 1 0-.2.29.29 0 0 1 .17-.13.29.29 0 0 1 .22 0 .24.24 0 0 1 .14.15v.15l.47-.15a.24.24 0 0 1 .21 0 .28.28 0 0 1 .12.15.28.28 0 0 1 0 .19.24.24 0 0 1-.16.13l-.47.15.07.24.88-.28q0-.12-.1-.32c0-.13-.07-.24-.11-.35a1.29 1.29 0 0 1-.07-.27.27.27 0 0 1 0-.19.32.32 0 0 1 .18-.11.36.36 0 0 1 .19 0 .21.21 0 0 1 .14.14 3.16 3.16 0 0 1 .1.34v.18l.05.21.06.19 1-.32a.23.23 0 0 1 .2 0 .3.3 0 0 1 .12.16.29.29 0 0 1 0 .2.22.22 0 0 1-.16.13l-1 .31.18.43a2.84 2.84 0 0 0 .19.37l.14.24a3.44 3.44 0 0 0 0-.61 1.43 1.43 0 0 1 0-.32c0-.08.08-.13.2-.13a.41.41 0 0 1 .26 0 .29.29 0 0 1 .1.17 2.27 2.27 0 0 1 0 .51 6.11 6.11 0 0 1-.13.86q.32.24.4.19a.27.27 0 0 0 0-.15.67.67 0 0 1 0-.23c0-.07.08-.12.21-.15a.28.28 0 0 1 .36.2 1.51 1.51 0 0 1 0 .52.94.94 0 0 1-.14.47.39.39 0 0 1-.17.15.62.62 0 0 1-.25 0 2.31 2.31 0 0 1-.63-.36l-.18.39a1.94 1.94 0 0 1-.21.37.26.26 0 0 1-.19.09.26.26 0 0 1-.21-.07.42.42 0 0 1-.12-.15.22.22 0 0 1 0-.15 1.1 1.1 0 0 1 .16-.21 2.13 2.13 0 0 0 .32-.65q-.19-.23-.28-.37t-.24-.43q-.15-.29-.2-.41l-.16-.39zM30.01 6a.19.19 0 0 1-.12 0l-.25-.2-.27-.16a.3.3 0 0 1-.12-.12.21.21 0 0 1 0-.19.29.29 0 0 1 .18-.15h.12a1.07 1.07 0 0 1 .27.13 2.35 2.35 0 0 1 .29.19.31.31 0 0 1 .11.16.26.26 0 0 1-.05.2.24.24 0 0 1-.16.13zm2.3 1.67l-.12-.87a.43.43 0 0 0-.05-.11.13.13 0 0 0-.14-.07h-.18a.25.25 0 0 1-.29-.21.29.29 0 0 1 0-.21.23.23 0 0 1 .17-.11l.38-.05a.55.55 0 0 1 .41.07.53.53 0 0 1 .18.37l.16 1.1a.37.37 0 0 0 .05.15.65.65 0 0 0 .23.16l.41.19a2.51 2.51 0 0 0 1 0 8.1 8.1 0 0 0 1.1-.19 1.91 1.91 0 0 1 .37-.09c.15 0 .24.06.27.16a.42.42 0 0 1 0 .25.36.36 0 0 1-.14.15 2 2 0 0 1-.55.14l-.88.11a8.67 8.67 0 0 1-.93.07 2.1 2.1 0 0 1-.43 0 .68.68 0 0 1-.28-.13l-.27-.23a.28.28 0 0 0-.18 0 .43.43 0 0 0-.2.17l-.13.17a.39.39 0 0 1-.24.15.21.21 0 0 1-.25-.11.44.44 0 0 1 0-.25.26.26 0 0 1 .06-.14 1.5 1.5 0 0 1 .22-.17.64.64 0 0 0 .22-.21.31.31 0 0 0 .03-.26zm1.85-.93a6.31 6.31 0 0 0-.56-.36.83.83 0 0 1-.23-.16.27.27 0 0 1-.06-.16.24.24 0 0 1 0-.19.39.39 0 0 1 .14-.11.26.26 0 0 1 .18 0l.24.13.31.21.2.13a3.17 3.17 0 0 0 .17-.43 2 2 0 0 0 0-.33.24.24 0 0 1 .06-.19l-1.51.22a.25.25 0 0 1-.19 0 .26.26 0 0 1-.1-.18.25.25 0 0 1 0-.2.27.27 0 0 1 .18-.1l1-.14h-.05l-.07-.09-.17-.21a.39.39 0 0 1-.06-.13.32.32 0 0 1 0-.14.27.27 0 0 1 .15-.15.3.3 0 0 1 .29 0 .63.63 0 0 1 .18.18l.15.21a.29.29 0 0 1 0 .13.23.23 0 0 1-.13.2l1.11-.16a.25.25 0 0 1 .2.05.27.27 0 0 1 .09.18.3.3 0 0 1 0 .2.22.22 0 0 1-.17.1l-.64.09H35a.17.17 0 0 1 .11.09.41.41 0 0 1 0 .2 2.59 2.59 0 0 1-.06.32q0 .19-.18.62l.77.54a.34.34 0 0 1 .17.27.36.36 0 0 1-.09.2.27.27 0 0 1-.22.11.84.84 0 0 1-.4-.22l-.48-.37a5.11 5.11 0 0 1-.51.56 1.22 1.22 0 0 1-.49.32q-.27.07-.37-.07a.36.36 0 0 1-.08-.25.22.22 0 0 1 .06-.14 1.36 1.36 0 0 1 .33-.17 1.55 1.55 0 0 0 .61-.61zm-2.61-1.85a.24.24 0 0 1 0-.19.31.31 0 0 1 .15-.15.36.36 0 0 1 .23 0 1.25 1.25 0 0 1 .27.14 2.2 2.2 0 0 1 .39.32q.2.2.09.36a.42.42 0 0 1-.2.17.28.28 0 0 1-.2 0 .89.89 0 0 1-.24-.17l-.27-.22-.22-.16a.2.2 0 0 1 0-.1zm6 1.73h-.27q-.44 0-.5-.19a.85.85 0 0 1-.05-.36v-.55a1.13 1.13 0 0 1 0-.25.38.38 0 0 1 .12-.16.69.69 0 0 1 .43-.07h.25a.19.19 0 0 0 .15 0 .23.23 0 0 0 0-.15v-.21a.27.27 0 0 0 0-.14s-.07-.06-.16-.06h-.64a.26.26 0 0 1-.18-.07.25.25 0 0 1-.08-.18.26.26 0 0 1 .08-.19.25.25 0 0 1 .19-.07h.83q.35 0 .42.1a.49.49 0 0 1 .1.18.92.92 0 0 1 0 .25v.61a.55.55 0 0 1-.13.4.63.63 0 0 1-.45.1h-.11c-.08 0-.13 0-.14.05a.38.38 0 0 0 0 .12v.24a.15.15 0 0 0 0 .11.17.17 0 0 0 .14.06h.31a.54.54 0 0 1 .39.11.49.49 0 0 1 .11.21.93.93 0 0 1 0 .22v1.03a.67.67 0 0 1-.48.57 1.29 1.29 0 0 1-.56.08.3.3 0 0 1-.27-.13.33.33 0 0 1 0-.25.24.24 0 0 1 .09-.16.62.62 0 0 1 .31-.06.51.51 0 0 0 .31-.07.4.4 0 0 0 .1-.22 2 2 0 0 0 0-.35V6.9a.38.38 0 0 0 0-.11.177.177 0 0 0-.31-.17zm1.28-1V4.08a.28.28 0 0 1 .07-.19.27.27 0 0 1 .21-.07.25.25 0 0 1 .21.09.29.29 0 0 1 .07.19v1.54h1.45a.23.23 0 0 1 .19.09.3.3 0 0 1 .06.21.31.31 0 0 1-.08.17.22.22 0 0 1-.18.07h-.54v.38a1.31 1.31 0 0 0 .21.61 2 2 0 0 0 .35.44l.21.2a.24.24 0 0 1 0 .16.29.29 0 0 1-.07.18.41.41 0 0 1-.25.12q-.18 0-.44-.31a3.6 3.6 0 0 1-.36-.57 2.28 2.28 0 0 1-.17-.54q-.06-.31-.1-.69h-.37v1.25l.18-.18a.25.25 0 0 1 .2-.08.3.3 0 0 1 .16.08.24.24 0 0 1 .08.21.35.35 0 0 1-.06.14 3.36 3.36 0 0 1-.38.39q-.33.31-.51.3a.33.33 0 0 1-.27-.13.3.3 0 0 1-.06-.22.62.62 0 0 1 0-.14.59.59 0 0 0 0-.2V6.14h-.17a.28.28 0 0 1-.19-.07.25.25 0 0 1-.07-.19.26.26 0 0 1 .27-.27zm1.78-1.47a.3.3 0 0 1 .22.07.26.26 0 0 1 .12.24.34.34 0 0 1-.09.19 4.06 4.06 0 0 1-.47.38 1.86 1.86 0 0 1-.53.32.33.33 0 0 1-.24 0 .27.27 0 0 1-.14-.26.24.24 0 0 1 .05-.14.86.86 0 0 1 .24-.17l.28-.17.37-.31zm1.11 3.35l.46-2.32a2.1 2.1 0 0 1 .23-.61q.17-.3.91-.15l2 .4q.81.16.85.49a2.18 2.18 0 0 1 0 .65l-.46 2.32a2.17 2.17 0 0 1-.23.61q-.18.32-1 .17l-2-.4q-.54-.1-.66-.3a.86.86 0 0 1-.14-.37 1.91 1.91 0 0 1 .04-.49zM44 5.1c.11 0 .17.1.17.17a.15.15 0 0 1-.07.12l.87.17q.27.05.3.2a.36.36 0 0 1 0 .27 1.16 1.16 0 0 1-.23.23 2.47 2.47 0 0 1-.46.29 2.08 2.08 0 0 0 .47.24q.26.09.3.21a.39.39 0 0 1 0 .27q-.06.16-.42 0a2.93 2.93 0 0 1-.9-.54 5.64 5.64 0 0 1-.71.15 1.55 1.55 0 0 1-.55 0q-.2-.06-.18-.2a.47.47 0 0 1 .06-.2.19.19 0 0 1 .11-.07h.31a2 2 0 0 0 .59-.1 2.06 2.06 0 0 1-.21-.39l-.19.12h-.16a.47.47 0 0 1-.17 0 .2.2 0 0 1-.13-.11.22.22 0 0 1 0-.18.24.24 0 0 1 .08-.12l.32-.15a1.78 1.78 0 0 0 .59-.5l-.44-.09q-.31-.06-.39 0a.62.62 0 0 0-.12.27l-.48 2.42a.59.59 0 0 0 0 .3q0 .12.34.18l2 .4q.43.09.51-.31l.41-2.35a.49.49 0 0 0 0-.27c0-.1-.15-.16-.32-.2zm-1 2.53a.24.24 0 0 1 .05-.2.25.25 0 0 1 .18-.08 2.35 2.35 0 0 1 .67.3 2.54 2.54 0 0 1 .61.39.24.24 0 0 1 0 .2.22.22 0 0 1-.26.17.93.93 0 0 1-.38-.18 4.45 4.45 0 0 0-.58-.32c-.19-.11-.3-.18-.3-.28zm1.5-.11a.28.28 0 0 1-.1.13.18.18 0 0 1-.15 0h-.1l-.19-.14-.23-.16-.18-.1v-.2a.19.19 0 0 1 .22-.14 1.29 1.29 0 0 1 .36.19.93.93 0 0 1 .31.26.23.23 0 0 1 .05.16zm-.37-1.31l.24-.13c.07-.05.11-.09.12-.12l-.66-.16a2.14 2.14 0 0 0 .29.41zm4.08.59l1.16.42.37-1a.25.25 0 0 1 .14-.15.31.31 0 0 1 .22 0 .39.39 0 0 1 .17.14.23.23 0 0 1 0 .23l-.37 1 1 .36a.26.26 0 0 1 .14.14.3.3 0 0 1 0 .21.26.26 0 0 1-.13.17.25.25 0 0 1-.22 0l-2.71-1-.2.48 1.17.43a.9.9 0 0 1 .51.33.47.47 0 0 1 .06.3 2.26 2.26 0 0 1-.09.28l-.42 1.14a.26.26 0 0 1-.15.15.33.33 0 0 1-.24 0 .28.28 0 0 1-.18-.15.27.27 0 0 1 0-.21l.36-1v-.13a.28.28 0 0 0 0-.15s-.08-.08-.19-.12l-1.06-.31-.22.38a2.79 2.79 0 0 1-.39.48 1.23 1.23 0 0 1-.51.35q-.25.08-.36-.08a.33.33 0 0 1 0-.3.3.3 0 0 1 .07-.11l.21-.15a2.09 2.09 0 0 0 .3-.25 2.33 2.33 0 0 0 .35-.51 9.52 9.52 0 0 0 .49-1.11l.26-.73.13-.39v-.13a.28.28 0 0 1 .15-.16.29.29 0 0 1 .23 0 .32.32 0 0 1 .18.16.27.27 0 0 1 0 .23zm6.27 4.6l-.93-.5-.61 1.15a.24.24 0 0 1-.16.12.3.3 0 0 1-.23 0 .29.29 0 0 1-.15-.16.25.25 0 0 1 0-.19l.61-1.15-.78-.41q-.17.28-.36.52a1.53 1.53 0 0 1-.52.42q-.33.17-.49.09a.36.36 0 0 1-.19-.2.27.27 0 0 1 0-.22.27.27 0 0 1 .11-.1l.24-.11a1 1 0 0 0 .33-.24 2.24 2.24 0 0 0 .25-.32l.2-.33.29-.53.33-.62.16-.31.1-.19a1.83 1.83 0 0 1 .26-.34q.19-.21.67 0l1.95 1q.56.29.48.59a2.07 2.07 0 0 1-.13.4l-1.36 2.78a1.26 1.26 0 0 1-.23.29q-.16.16-.62-.1t-.19-.48c.05-.08.11-.13.17-.13a.49.49 0 0 1 .21.05.26.26 0 0 0 .15 0s.06-.06.1-.14zm-1.21-1.24l.27-.52-.78-.41-.27.52zm.52.28l.94.5.27-.52-.94-.5zm-.78-1.64l.78.41.3-.56-.63-.33c-.1-.05-.18 0-.24.09zm2.24 1.18l.21-.39a.16.16 0 0 0-.07-.25l-.78-.41-.3.56zm3.76 2.61l-.33.48.81.56a.25.25 0 0 1 .06.17.3.3 0 0 1-.23.33.25.25 0 0 1-.2 0l-.81-.56-.29.42.91.63a.26.26 0 0 1 .12.17.28.28 0 0 1-.05.22.25.25 0 0 1-.19.12.29.29 0 0 1-.19 0l-.91-.63-.41.6a.23.23 0 0 1-.17.1.32.32 0 0 1-.22-.06.29.29 0 0 1-.14-.18.24.24 0 0 1 0-.19l1.78-2.51-.1-.07-.19.1-.29.13a1.39 1.39 0 0 1-.33.13.4.4 0 0 1-.24-.07.19.19 0 0 1-.11-.23.47.47 0 0 1 .08-.19.46.46 0 0 1 .18-.12l.3-.11a2.94 2.94 0 0 0 .44-.23 2.86 2.86 0 0 0 .45-.34 2 2 0 0 1 .31-.25.22.22 0 0 1 .26 0 .3.3 0 0 1 .14.23.33.33 0 0 1 0 .19.7.7 0 0 1-.14.15l-.17.14-.15.11 1.26.97a.27.27 0 0 1 .11.19.28.28 0 0 1-.06.22.24.24 0 0 1-.36 0zm-1.53-1.21a.11.11 0 0 1 0 .1.62.62 0 0 1-.09.15l-1.6 2.32a.27.27 0 0 1-.17.11.26.26 0 0 1-.22-.06.24.24 0 0 1-.12-.19.3.3 0 0 1 .05-.18l1.34-1.93a1.15 1.15 0 0 1-.38.07.33.33 0 0 1-.15-.07.29.29 0 0 1-.12-.18.25.25 0 0 1 0-.19.42.42 0 0 1 .12-.12.72.72 0 0 1 .22-.07l.26-.05.31-.12a3.93 3.93 0 0 0 .41-.22 2.92 2.92 0 0 0 .36-.26 1.23 1.23 0 0 1 .27-.18.27.27 0 0 1 .26.06q.16.1.13.22a.51.51 0 0 1-.07.19 1.88 1.88 0 0 1-.34.28 3.92 3.92 0 0 1-.47.32zm3.97 5.56l.84.77a.25.25 0 0 1 .09.17.23.23 0 0 1-.06.18.22.22 0 0 1-.17.08.24.24 0 0 1-.17-.06l-.85-.77-.18.2 1.19 1.09a.3.3 0 0 1 .1.17.21.21 0 0 1-.07.19.21.21 0 0 1-.19.07.32.32 0 0 1-.16-.07l-2.81-2.56a.3.3 0 0 1-.1-.17.23.23 0 0 1 .06-.19.19.19 0 0 1 .18-.08.34.34 0 0 1 .18.08l1.22 1.07.18-.2-.85-.78a.27.27 0 0 1-.08-.17.22.22 0 0 1 .05-.18.21.21 0 0 1 .17-.08.27.27 0 0 1 .18.07l.85.78.06-.07a.21.21 0 0 1 .16-.07.29.29 0 0 1 .2.09.33.33 0 0 1 .12.19.2.2 0 0 1-.06.18zm1.35-1.27v-.06a.68.68 0 0 0 0-.1.31.31 0 0 1 0-.12s0-.08.07-.08h.06-.05a.34.34 0 0 1-.11-.19.2.2 0 0 1 .08-.19q.15-.15.35 0l.43.39a.94.94 0 0 1 0-.11V15a.26.26 0 0 1 0-.09.16.16 0 0 1 .06-.07.21.21 0 0 1 .26 0 .37.37 0 0 1 .11.33.68.68 0 0 1-.07.32l-.05.05.39.36a.24.24 0 0 1 0 .4q-.13.12-.3 0l-.09-.09a.43.43 0 0 1 0 .12.17.17 0 0 1-.07.07l-.22.08.23.21a.23.23 0 0 1 .08.16.21.21 0 0 1-.08.17.25.25 0 0 1-.17.06.22.22 0 0 1-.15-.06l-.47-.42-.18.2.35.32a.27.27 0 0 1 .08.16.24.24 0 0 1-.25.26.27.27 0 0 1-.15-.06l-.36-.33-.14.16a.18.18 0 0 1-.16.06.37.37 0 0 1-.19-.08.26.26 0 0 1-.11-.18.21.21 0 0 1 .05-.17l.14-.16-.31-.28q-.22-.2 0-.38t.34 0l.31.28.18-.2-.44-.4a.35.35 0 0 1-.08-.13.18.18 0 0 1 .05-.19.2.2 0 0 1 .18-.09.29.29 0 0 1 .16.07zm-1.48-1.17l-.18.14a1 1 0 0 1 .23.15l.41.37a.41.41 0 0 1 0 .66l-.22.25a1.11 1.11 0 0 1-.23.16q-.18.11-.43-.12l-.4-.37q-.35-.32-.07-.62l.18-.2a2.35 2.35 0 0 1-.41.08.29.29 0 0 1-.24-.09q-.17-.17-.09-.3a.42.42 0 0 1 .17-.17h.21a1.24 1.24 0 0 0 .34-.08 1 1 0 0 0 .33-.22l.33-.33.24-.25.14-.13a.51.51 0 0 1 .22-.07.42.42 0 0 1 .33.14l.6.55a.41.41 0 0 1 0 .65l-.31.34a.56.56 0 0 1-.18.12.31.31 0 0 1-.25 0 .6.6 0 0 1-.19-.1zm0 1.15l.06-.07q.08-.09 0-.16l-.17-.16a.15.15 0 0 0-.09 0s-.05 0-.09.06l-.06.07a.14.14 0 0 0 0 .07l.06.09.16.15a.2.2 0 0 0 .09.06s-.02-.07.02-.11zm2-.11v.41l.26.24v-.13l.12-.06a.52.52 0 0 1 .19 0zm-1.61-1.36l.38.34a.17.17 0 0 0 .11.06.19.19 0 0 0 .11-.07l.07-.08c.07-.07.07-.14 0-.2l-.28-.25c-.06-.06-.11-.08-.14-.06l-.08.07zm4.3 5.15l.33.41.2-.17.16-.14a.4.4 0 0 1 .23-.12.25.25 0 0 1 .2.11.26.26 0 0 1 .09.2.38.38 0 0 1-.07.17l-.36.27-.11.09.5.61a.23.23 0 0 1 .05.19.29.29 0 0 1-.1.17.27.27 0 0 1-.19.06.22.22 0 0 1-.18-.09l-.48-.6-.23.21-.31.35a2.43 2.43 0 0 0-.33.49 1.11 1.11 0 0 0-.12.32c0 .06 0 .07.15 0l.11-.06.17-.08c.07 0 .14 0 .22.12a.33.33 0 0 1 .08.24.31.31 0 0 1-.08.18.71.71 0 0 1-.23.14l-.49.19a.45.45 0 0 1-.49 0 .37.37 0 0 1-.08-.35q0-.24.1-.55a2 2 0 0 1 .46-.78 8.2 8.2 0 0 1 .61-.66l.14-.13-.41-.46-1.22 1 .31.05a.54.54 0 0 1 .19 0 .22.22 0 0 1 .1.12.33.33 0 0 1 0 .18.25.25 0 0 1-.14.17 1.23 1.23 0 0 1-.63-.06 2.3 2.3 0 0 1-.59-.2.32.32 0 0 1-.13-.19.27.27 0 0 1 0-.2.38.38 0 0 1 .13-.14.21.21 0 0 1 .1 0h.07a.42.42 0 0 0 .18-.1l2.26-1.83a1 1 0 0 1 .27-.15.32.32 0 0 1 .27 0 1.39 1.39 0 0 1 .32.27l.35.36a3.18 3.18 0 0 0 .42.32 1.72 1.72 0 0 1 .3.23.25.25 0 0 1 0 .33.39.39 0 0 1-.19.17.29.29 0 0 1-.2 0 1.46 1.46 0 0 1-.29-.22l-.26-.23-.38-.38-.16-.15a.14.14 0 0 0-.11-.06.29.29 0 0 0-.15.07zm-3.52 0a.23.23 0 0 1 0-.15.32.32 0 0 1 .13-.18.21.21 0 0 1 .12-.06.25.25 0 0 1 .12 0l.2.14.29.22.38.23a1.27 1.27 0 0 1 .26.17.21.21 0 0 1 0 .27.33.33 0 0 1-.18.15.44.44 0 0 1-.16 0 2.83 2.83 0 0 1-.54-.29 5.45 5.45 0 0 1-.54-.37.44.44 0 0 1-.08-.1zm1.79-.72l.45.38.11.09a.19.19 0 0 1 0 .29.34.34 0 0 1-.23.12.67.67 0 0 1-.29-.17l-.5-.43a3.57 3.57 0 0 1-.33-.32.24.24 0 0 1 0-.29.41.41 0 0 1 .21-.18h.28a3.53 3.53 0 0 0 .8 0l-.23-.14-.1-.16q-.15-.2 0-.34a.57.57 0 0 1 .24-.18 2.39 2.39 0 0 1 .41 0 3.72 3.72 0 0 0 .7-.1 1.27 1.27 0 0 1 .43-.06.31.31 0 0 1 .14.11.27.27 0 0 1 .06.25.31.31 0 0 1-.12.16.65.65 0 0 1-.27.07l-.49.09h-.53l.26.3h.52a.28.28 0 0 1 .14 0 .23.23 0 0 1 .09.1q.13.24 0 .33a.52.52 0 0 1-.2.12 13 13 0 0 1-1.55 0zM32.55 70.49v-.69h-.22q-.15.28-.26.46a.3.3 0 0 1-.26.17.36.36 0 0 1-.23-.08.23.23 0 0 1-.08-.19.29.29 0 0 1 0-.12l.17-.28a2 2 0 0 0 .22-.44 3.39 3.39 0 0 0 .12-.42q0-.19.08-.32a.19.19 0 0 1 .2-.13.41.41 0 0 1 .26.06.24.24 0 0 1 .11.15.49.49 0 0 1 0 .19l-.14.42h1.03a.29.29 0 0 1 .22.09.26.26 0 0 1 .09.19.29.29 0 0 1-.09.19.28.28 0 0 1-.22.06h-.37v.68h.37a.33.33 0 0 1 .19.07.24.24 0 0 1 .1.2.23.23 0 0 1-.09.2.33.33 0 0 1-.2.07h-.46v.4q.08 0 .21.07l.25.31a4.65 4.65 0 0 1 .3.4.7.7 0 0 1 .13.31.28.28 0 0 1-.1.23.26.26 0 0 1-.23.08.22.22 0 0 1-.15-.07 2.53 2.53 0 0 1-.19-.28 3.45 3.45 0 0 0-.37-.47c0 .1-.09.19-.14.26a1.93 1.93 0 0 1-.23.3 3.84 3.84 0 0 1-.31.31 1.13 1.13 0 0 1-.24.17.37.37 0 0 1-.19 0 .3.3 0 0 1-.18-.08.24.24 0 0 1-.1-.16.32.32 0 0 1 0-.17 1.41 1.41 0 0 1 .28-.22 1.19 1.19 0 0 0 .38-.42 2.11 2.11 0 0 0 .2-.46 3.85 3.85 0 0 0 .1-.51h-.84a.24.24 0 0 1-.18-.07.26.26 0 0 1-.08-.21.29.29 0 0 1 .07-.19.23.23 0 0 1 .19-.09zm3.29-.69v2.32a.85.85 0 0 1 0 .24.5.5 0 0 1-.15.23.77.77 0 0 1-.48.1h-.66a.77.77 0 0 1-.47-.1.38.38 0 0 1-.14-.22 1.46 1.46 0 0 1 0-.25V69.8a3 3 0 0 1 0-.43q0-.22.59-.22h.66a.71.71 0 0 1 .44.11.39.39 0 0 1 .16.23 1.83 1.83 0 0 1 .08.31zm-1.2 2.37h.49q.14 0 .14-.2v-2.1a.3.3 0 0 0 0-.1.11.11 0 0 0-.11-.07h-.49q-.13 0-.13.18v2.1a.3.3 0 0 0 0 .16.12.12 0 0 0 .13.03zm2.35-.14v-1.1a.31.31 0 0 0 0-.11s-.06-.07-.13-.07h-.18a.35.35 0 0 1-.15 0 .2.2 0 0 1-.1-.19.32.32 0 0 1 .07-.23.23.23 0 0 1 .18-.08h.34q.46 0 .51.21a1.77 1.77 0 0 1 0 .32v1.24q0 .13.25.33a1 1 0 0 0 .42.23h2.15a1.47 1.47 0 0 1 .33 0 .25.25 0 0 1 .23.26.3.3 0 0 1-.09.23.48.48 0 0 1-.24.1 4.18 4.18 0 0 1-.6 0H38.3a1.27 1.27 0 0 1-.47-.11.76.76 0 0 1-.28-.26l-.13-.16a.26.26 0 0 0-.15-.07h-.14a1 1 0 0 0-.22.14.79.79 0 0 1-.22.14.2.2 0 0 1-.19 0 .29.29 0 0 1-.12-.18.33.33 0 0 1 0-.21.29.29 0 0 1 .12-.14l.21-.1a.49.49 0 0 0 .17-.09.17.17 0 0 0 .11-.1zm-.44-3.15a.31.31 0 0 1 .08-.11.28.28 0 0 1 .17-.08.33.33 0 0 1 .2 0 1.25 1.25 0 0 1 .27.25 1.58 1.58 0 0 1 .22.29.33.33 0 0 1 0 .22.29.29 0 0 1-.11.18.27.27 0 0 1-.19 0 .3.3 0 0 1-.17-.06 1.06 1.06 0 0 1-.17-.18l-.2-.23a.6.6 0 0 1-.13-.18.29.29 0 0 1 .03-.1zm1.79.29a4.52 4.52 0 0 1-.29-.36.19.19 0 0 1 0-.16.22.22 0 0 1 .1-.11.3.3 0 0 1 .17 0 .49.49 0 0 1 .35.23 1 1 0 0 1 .17.28.23.23 0 0 1-.06.17h.67a.27.27 0 0 1 0-.1.23.23 0 0 1 .05-.14l.05-.18.1-.16a.34.34 0 0 1 .21-.16.25.25 0 0 1 .21.06.26.26 0 0 1 .11.16.38.38 0 0 1 0 .19 1.23 1.23 0 0 1-.16.24h.64a.26.26 0 0 1 .19.08.25.25 0 0 1 .08.19.25.25 0 0 1-.09.2.28.28 0 0 1-.17.07h-1.12l-.06.21h.41a1 1 0 0 1 .54.12.45.45 0 0 1 .17.39v1.41a.51.51 0 0 1-.16.42.88.88 0 0 1-.54.13h-1.28a.84.84 0 0 1-.5-.1.47.47 0 0 1-.16-.22.75.75 0 0 1 0-.22v-1.37a.49.49 0 0 1 .14-.41 1 1 0 0 1 .55-.12h.23v-.21h-1a.25.25 0 0 1-.19-.08.3.3 0 0 1-.08-.2.21.21 0 0 1 .09-.18.3.3 0 0 1 .18-.07zm.15 1.43h1.49v-.07a.13.13 0 0 0-.14-.14h-1.17c-.07 0-.12 0-.14.06a.23.23 0 0 0 0 .08zm0 .64h1.49v-.22h-1.43zm1.49.41h-1.43v.07q0 .14.18.14h1.12c.1 0 .15 0 .15-.14zm4.08-1.16c.06.18.1.31.12.4a3.17 3.17 0 0 1 .06.37v.79a2.06 2.06 0 0 1-.09.51.83.83 0 0 1-.26.36 1 1 0 0 1-.65.17.68.68 0 0 1-.4-.1.37.37 0 0 1-.16-.32c0-.15.1-.22.3-.22h.27a.26.26 0 0 0 .3-.23 2.05 2.05 0 0 0 .06-.44v-.63a1.49 1.49 0 0 0-.14-.47 1.71 1.71 0 0 0-.17-.3l-.15-.16a.31.31 0 0 1-.08-.21.23.23 0 0 1 .1-.19.34.34 0 0 1 .21-.07.62.62 0 0 1 .42.26q.44-.27.9-.6h-2.82a.21.21 0 0 1-.2-.1.37.37 0 0 1-.06-.21.33.33 0 0 1 .07-.19.22.22 0 0 1 .19-.09h3.28q.29 0 .37.12a.42.42 0 0 1 .08.22.38.38 0 0 1-.12.28 4.14 4.14 0 0 1-.43.33z"/>
</svg>
